<?xml version="1.0" encoding="us-ascii" standalone="no"?><svg xmlns="http://www.w3.org/2000/svg" xmlns:xlink="http://www.w3.org/1999/xlink" contentStyleType="text/css" height="402px" preserveAspectRatio="none" style="width:599px;height:402px;background:#FFFFFF;" version="1.1" viewBox="0 0 599 402" width="599px" zoomAndPan="magnify"><defs/><g><!--class DynamicMBean--><g id="elem_DynamicMBean"><rect codeLine="3" fill="#F1F1F1" height="48" id="DynamicMBean" rx="2.5" ry="2.5" style="stroke:#181818;stroke-width:0.5;" width="135" x="168.5" y="7"/><ellipse cx="183.5" cy="23" fill="#ADD1B2" rx="11" ry="11" style="stroke:#181818;stroke-width:1.0;"/><path d="M186.4731,28.6431 Q185.8921,28.9419 185.2529,29.0913 Q184.6138,29.2407 183.9082,29.2407 Q181.4014,29.2407 180.0815,27.5889 Q178.7617,25.937 178.7617,22.8159 Q178.7617,19.6865 180.0815,18.0347 Q181.4014,16.3828 183.9082,16.3828 Q184.6138,16.3828 185.2612,16.5322 Q185.9087,16.6816 186.4731,16.9805 L186.4731,19.7031 Q185.8423,19.1221 185.2488,18.8523 Q184.6553,18.5825 184.0244,18.5825 Q182.6797,18.5825 181.9949,19.6492 Q181.3101,20.7158 181.3101,22.8159 Q181.3101,24.9077 181.9949,25.9744 Q182.6797,27.041 184.0244,27.041 Q184.6553,27.041 185.2488,26.7712 Q185.8423,26.5015 186.4731,25.9204 Z " fill="#000000"/><text fill="#000000" font-family="sans-serif" font-size="14" lengthAdjust="spacing" textLength="103" x="197.5" y="28.291">DynamicMBean</text><line style="stroke:#181818;stroke-width:0.5;" x1="169.5" x2="302.5" y1="39" y2="39"/><line style="stroke:#181818;stroke-width:0.5;" x1="169.5" x2="302.5" y1="47" y2="47"/></g><!--class IntrospectionMBean--><g id="elem_IntrospectionMBean"><rect codeLine="4" fill="#F1F1F1" height="48" id="IntrospectionMBean" rx="2.5" ry="2.5" style="stroke:#181818;stroke-width:0.5;" width="168" x="152" y="123.25"/><ellipse cx="167" cy="139.25" fill="#ADD1B2" rx="11" ry="11" style="stroke:#181818;stroke-width:1.0;"/><path d="M169.9731,144.8931 Q169.3921,145.1919 168.7529,145.3413 Q168.1138,145.4907 167.4082,145.4907 Q164.9014,145.4907 163.5815,143.8389 Q162.2617,142.187 162.2617,139.0659 Q162.2617,135.9365 163.5815,134.2847 Q164.9014,132.6328 167.4082,132.6328 Q168.1138,132.6328 168.7612,132.7822 Q169.4087,132.9316 169.9731,133.2305 L169.9731,135.9531 Q169.3423,135.3721 168.7488,135.1023 Q168.1553,134.8325 167.5244,134.8325 Q166.1797,134.8325 165.4949,135.8992 Q164.8101,136.9658 164.8101,139.0659 Q164.8101,141.1577 165.4949,142.2244 Q166.1797,143.291 167.5244,143.291 Q168.1553,143.291 168.7488,143.0212 Q169.3423,142.7515 169.9731,142.1704 Z " fill="#000000"/><text fill="#000000" font-family="sans-serif" font-size="14" lengthAdjust="spacing" textLength="136" x="181" y="144.541">IntrospectionMBean</text><line style="stroke:#181818;stroke-width:0.5;" x1="153" x2="319" y1="155.25" y2="155.25"/><line style="stroke:#181818;stroke-width:0.5;" x1="153" x2="319" y1="163.25" y2="163.25"/></g><!--class IntrospectionFilter--><g id="elem_IntrospectionFilter"><rect codeLine="5" fill="#F1F1F1" height="64.4883" id="IntrospectionFilter" rx="2.5" ry="2.5" style="stroke:#181818;stroke-width:0.5;" width="197" x="354.5" y="115"/><ellipse cx="387.05" cy="131" fill="#B4A7E5" rx="11" ry="11" style="stroke:#181818;stroke-width:1.0;"/><path d="M382.9777,126.7651 L382.9777,124.6069 L390.3571,124.6069 L390.3571,126.7651 L387.8918,126.7651 L387.8918,134.8418 L390.3571,134.8418 L390.3571,137 L382.9777,137 L382.9777,134.8418 L385.4431,134.8418 L385.4431,126.7651 Z " fill="#000000"/><text fill="#000000" font-family="sans-serif" font-size="14" font-style="italic" lengthAdjust="spacing" textLength="126" x="404.95" y="136.291">IntrospectionFilter</text><line style="stroke:#181818;stroke-width:0.5;" x1="355.5" x2="550.5" y1="147" y2="147"/><line style="stroke:#181818;stroke-width:0.5;" x1="355.5" x2="550.5" y1="155" y2="155"/><text fill="#000000" font-family="sans-serif" font-size="14" lengthAdjust="spacing" textLength="185" x="360.5" y="172.5352">boolean filter(String name)</text></g><!--class AbstractFilter--><g id="elem_AbstractFilter"><rect codeLine="8" fill="#F1F1F1" height="48" id="AbstractFilter" rx="2.5" ry="2.5" style="stroke:#181818;stroke-width:0.5;" width="124" x="391" y="239.49"/><ellipse cx="406" cy="255.49" fill="#A9DCDF" rx="11" ry="11" style="stroke:#181818;stroke-width:1.0;"/><path d="M406.1133,250.8381 L404.9595,255.9099 L407.2754,255.9099 Z M404.6191,248.5969 L407.6157,248.5969 L410.9609,260.99 L408.5122,260.99 L407.7485,257.927 L404.4697,257.927 L403.7227,260.99 L401.2739,260.99 Z " fill="#000000"/><text fill="#000000" font-family="sans-serif" font-size="14" font-style="italic" lengthAdjust="spacing" textLength="92" x="420" y="260.781">AbstractFilter</text><line style="stroke:#181818;stroke-width:0.5;" x1="392" x2="514" y1="271.49" y2="271.49"/><line style="stroke:#181818;stroke-width:0.5;" x1="392" x2="514" y1="279.49" y2="279.49"/></g><!--class AttributeFilter--><g id="elem_AttributeFilter"><rect codeLine="10" fill="#F1F1F1" height="48" id="AttributeFilter" rx="2.5" ry="2.5" style="stroke:#181818;stroke-width:0.5;" width="128" x="310" y="347.49"/><ellipse cx="325" cy="363.49" fill="#ADD1B2" rx="11" ry="11" style="stroke:#181818;stroke-width:1.0;"/><path d="M327.9731,369.1331 Q327.3921,369.4319 326.7529,369.5813 Q326.1138,369.7307 325.4082,369.7307 Q322.9014,369.7307 321.5815,368.0789 Q320.2617,366.427 320.2617,363.3059 Q320.2617,360.1765 321.5815,358.5247 Q322.9014,356.8728 325.4082,356.8728 Q326.1138,356.8728 326.7612,357.0222 Q327.4087,357.1716 327.9731,357.4705 L327.9731,360.1931 Q327.3423,359.6121 326.7488,359.3423 Q326.1553,359.0725 325.5244,359.0725 Q324.1797,359.0725 323.4949,360.1392 Q322.8101,361.2058 322.8101,363.3059 Q322.8101,365.3977 323.4949,366.4644 Q324.1797,367.531 325.5244,367.531 Q326.1553,367.531 326.7488,367.2612 Q327.3423,366.9915 327.9731,366.4104 Z " fill="#000000"/><text fill="#000000" font-family="sans-serif" font-size="14" lengthAdjust="spacing" textLength="96" x="339" y="368.781">AttributeFilter</text><line style="stroke:#181818;stroke-width:0.5;" x1="311" x2="437" y1="379.49" y2="379.49"/><line style="stroke:#181818;stroke-width:0.5;" x1="311" x2="437" y1="387.49" y2="387.49"/></g><!--class MethodFilter--><g id="elem_MethodFilter"><rect codeLine="12" fill="#F1F1F1" height="48" id="MethodFilter" rx="2.5" ry="2.5" style="stroke:#181818;stroke-width:0.5;" width="119" x="473.5" y="347.49"/><ellipse cx="488.5" cy="363.49" fill="#ADD1B2" rx="11" ry="11" style="stroke:#181818;stroke-width:1.0;"/><path d="M491.4731,369.1331 Q490.8921,369.4319 490.2529,369.5813 Q489.6138,369.7307 488.9082,369.7307 Q486.4014,369.7307 485.0815,368.0789 Q483.7617,366.427 483.7617,363.3059 Q483.7617,360.1765 485.0815,358.5247 Q486.4014,356.8728 488.9082,356.8728 Q489.6138,356.8728 490.2612,357.0222 Q490.9087,357.1716 491.4731,357.4705 L491.4731,360.1931 Q490.8423,359.6121 490.2488,359.3423 Q489.6553,359.0725 489.0244,359.0725 Q487.6797,359.0725 486.9949,360.1392 Q486.3101,361.2058 486.3101,363.3059 Q486.3101,365.3977 486.9949,366.4644 Q487.6797,367.531 489.0244,367.531 Q489.6553,367.531 490.2488,367.2612 Q490.8423,366.9915 491.4731,366.4104 Z " fill="#000000"/><text fill="#000000" font-family="sans-serif" font-size="14" lengthAdjust="spacing" textLength="87" x="502.5" y="368.781">MethodFilter</text><line style="stroke:#181818;stroke-width:0.5;" x1="474.5" x2="591.5" y1="379.49" y2="379.49"/><line style="stroke:#181818;stroke-width:0.5;" x1="474.5" x2="591.5" y1="387.49" y2="387.49"/></g><!--class Description--><g id="elem_Description"><rect codeLine="14" fill="#F1F1F1" height="64.4883" id="Description" rx="2.5" ry="2.5" style="stroke:#181818;stroke-width:0.5;" width="110" x="7" y="115"/><ellipse cx="22" cy="131" fill="#E3664A" rx="11" ry="11" style="stroke:#181818;stroke-width:1.0;"/><path d="M24.0767,131.4761 Q24.0767,130.5381 23.6533,130.0068 Q23.23,129.4756 22.4912,129.4756 Q21.7524,129.4756 21.3333,130.0068 Q20.9141,130.5381 20.9141,131.4761 Q20.9141,132.4224 21.3333,132.9536 Q21.7524,133.4849 22.4912,133.4849 Q23.23,133.4849 23.6533,132.9536 Q24.0767,132.4224 24.0767,131.4761 Z M25.6206,134.8794 L23.9937,134.8794 L23.9937,134.1987 Q23.6782,134.6387 23.2507,134.842 Q22.8232,135.0454 22.2256,135.0454 Q20.8643,135.0454 20.03,134.0659 Q19.1958,133.0864 19.1958,131.4761 Q19.1958,129.874 20.0259,128.8987 Q20.856,127.9233 22.2256,127.9233 Q22.8149,127.9233 23.2632,128.1267 Q23.7114,128.3301 23.9937,128.7202 L23.9937,128.3799 Q23.9937,127.251 23.3752,126.6367 Q22.7568,126.0225 21.6113,126.0225 Q19.8848,126.0225 18.7932,127.5415 Q17.7017,129.0605 17.7017,131.4927 Q17.7017,134.041 18.9634,135.5476 Q20.2251,137.0542 22.3252,137.0542 Q22.9893,137.0542 23.6118,136.8591 Q24.2344,136.6641 24.8071,136.2739 L25.5708,137.7349 Q24.8984,138.1914 24.1057,138.4197 Q23.313,138.6479 22.4082,138.6479 Q19.5029,138.6479 17.7764,136.7139 Q16.0498,134.7798 16.0498,131.4927 Q16.0498,128.2803 17.6021,126.3503 Q19.1543,124.4204 21.7109,124.4204 Q23.5205,124.4204 24.5706,125.512 Q25.6206,126.6035 25.6206,128.4878 Z " fill="#000000"/><text fill="#000000" font-family="sans-serif" font-size="14" lengthAdjust="spacing" textLength="78" x="36" y="136.291">Description</text><line style="stroke:#181818;stroke-width:0.5;" x1="8" x2="116" y1="147" y2="147"/><line style="stroke:#181818;stroke-width:0.5;" x1="8" x2="116" y1="155" y2="155"/><text fill="#000000" font-family="sans-serif" font-size="14" lengthAdjust="spacing" textLength="91" x="13" y="172.5352">String value()</text></g><!--reverse link DynamicMBean to IntrospectionMBean--><g id="link_DynamicMBean_IntrospectionMBean"><path codeLine="18" d="M236,73.4 C236,93.11 236,103.18 236,122.88 " fill="none" id="DynamicMBean-backto-IntrospectionMBean" style="stroke:#181818;stroke-width:1.0;"/><polygon fill="none" points="236,55.4,230,73.4,242,73.4,236,55.4" style="stroke:#181818;stroke-width:1.0;"/></g><!--reverse link IntrospectionFilter to AbstractFilter--><g id="link_IntrospectionFilter_AbstractFilter"><path codeLine="20" d="M453,197.77 C453,216.52 453,221.92 453,239.05 " fill="none" id="IntrospectionFilter-backto-AbstractFilter" style="stroke:#181818;stroke-width:1.0;stroke-dasharray:7.0,7.0;"/><polygon fill="none" points="453,179.77,447,197.77,459,197.77,453,179.77" style="stroke:#181818;stroke-width:1.0;"/></g><!--reverse link AbstractFilter to AttributeFilter--><g id="link_AbstractFilter_AttributeFilter"><path codeLine="21" d="M424.9071,302.1852 C411.7371,319.8652 404.46,329.62 391.3,347.28 " fill="none" id="AbstractFilter-backto-AttributeFilter" style="stroke:#181818;stroke-width:1.0;"/><polygon fill="none" points="435.66,287.75,420.0954,298.6009,429.7188,305.7695,435.66,287.75" style="stroke:#181818;stroke-width:1.0;"/></g><!--reverse link AbstractFilter to MethodFilter--><g id="link_AbstractFilter_MethodFilter"><path codeLine="22" d="M481.3964,302.1226 C494.7264,319.8026 502.16,329.62 515.48,347.28 " fill="none" id="AbstractFilter-backto-MethodFilter" style="stroke:#181818;stroke-width:1.0;"/><polygon fill="none" points="470.56,287.75,476.6055,305.7348,486.1873,298.5105,470.56,287.75" style="stroke:#181818;stroke-width:1.0;"/></g><!--link Description to IntrospectionMBean--><g id="link_Description_IntrospectionMBean"><path codeLine="24" d="M117.39,147.25 C128.82,147.25 128.25,147.25 139.68,147.25 " fill="none" id="Description-to-IntrospectionMBean" style="stroke:#181818;stroke-width:1.0;"/><polygon fill="#181818" points="151.68,147.25,145.68,143.25,139.68,147.25,145.68,151.25,151.68,147.25" style="stroke:#181818;stroke-width:1.0;"/></g><!--reverse link IntrospectionMBean to IntrospectionFilter--><g id="link_IntrospectionMBean_IntrospectionFilter"><path codeLine="25" d="M332.34,147.25 C343.57,147.25 342.8,147.25 354.02,147.25 " fill="none" id="IntrospectionMBean-backto-IntrospectionFilter" style="stroke:#181818;stroke-width:1.0;"/><polygon fill="#181818" points="320.34,147.25,326.34,151.25,332.34,147.25,326.34,143.25,320.34,147.25" style="stroke:#181818;stroke-width:1.0;"/></g><!--SRC=[RL5DYy8m4BtFhyXjNI7jVV6Yo887J_w2QPosWNHIagaWwd_Vs9QbsqrEcVScxuDyj29z_2hBtY7BqBd2-Auq3cFKLujDm0vW7DNnpjXPSpuGyWoTM8AFFHcndYV2ib2eqT1VyjkwXAi7g7GgxrtQLVK8RYuIB3SggTCdl02hA06DgCbZFu-_2g_PV2_fNJK8_MFE9As_Bc1azeBl7Ef8qGJRZ_SfpMn_GpVGvXq0batLxgbrhYZa-ksUHR5A3Ai2ezugUtPdsMBbDYNRQaUrw6Mb_5gmJIiwzo7m0m00]--></g></svg>